<?xml version="1.0" standalone="no"?>
<!DOCTYPE svg PUBLIC "-//W3C//DTD SVG 20010904//EN"
 "http://www.w3.org/TR/2001/REC-SVG-20010904/DTD/svg10.dtd">
<svg version="1.0" xmlns="http://www.w3.org/2000/svg"
 width="369.000000pt" height="369.000000pt" viewBox="0 0 369.000000 369.000000"
 preserveAspectRatio="xMidYMid meet">
<metadata>
Created by potrace 1.14, written by Peter Selinger 2001-2017
</metadata>
<g transform="translate(0.000000,369.000000) scale(0.100000,-0.100000)"
fill="#000000" stroke="none">
<path d="M1779 3657 c-24 -13 -24 -13 -29 -213 l-5 -200 -270 98 -270 97 -480
-136 c-264 -75 -494 -140 -512 -145 -68 -19 -63 107 -63 -1452 l0 -1413 23
-21 c13 -12 27 -22 33 -22 5 0 140 -48 299 -107 l290 -107 562 -3 561 -4 21
27 c20 25 21 39 21 210 0 101 4 184 9 184 4 0 84 -27 177 -61 93 -34 212 -76
265 -95 l96 -33 508 144 c279 80 514 150 521 156 20 17 21 2851 1 2867 -7 6
-152 62 -323 124 l-309 113 -551 2 c-415 1 -556 -1 -575 -10z m1228 -154 l133
-48 -356 -3 -356 -2 -131 45 c-72 25 -133 48 -136 50 -2 3 157 5 355 5 l358 0
133 -47z m-986 -33 c79 -28 188 -67 242 -87 l97 -36 0 -431 c0 -368 -2 -428
-14 -416 -8 8 -120 167 -250 352 l-236 337 0 166 c0 91 4 165 9 165 5 0 73
-23 152 -50z m809 -1373 l0 -1233 -427 -122 c-236 -67 -441 -124 -458 -127
-30 -6 -33 -1 -323 414 -162 231 -300 422 -309 425 -26 10 -42 7 -63 -14 -19
-19 -20 -33 -20 -545 l0 -525 -175 0 -175 0 0 1234 0 1233 448 127 c246 70
452 126 457 126 6 -1 125 -166 265 -368 344 -493 335 -482 364 -482 58 0 56
-16 56 561 l0 529 180 0 180 0 0 -1233z m610 -87 c0 -802 -4 -1320 -9 -1320
-5 0 -116 38 -247 85 -130 47 -239 85 -241 85 -1 0 -3 556 -3 1235 l0 1235
250 0 250 0 0 -1320z m-2049 1240 c106 -39 201 -73 209 -76 8 -3 -163 -57
-380 -119 l-395 -114 -200 71 c-110 39 -203 74 -208 78 -4 3 169 56 385 117
216 62 393 112 394 112 0 1 88 -31 195 -69z m-870 -324 l234 -84 3 -1236 2
-1236 -245 0 -245 0 0 1320 c0 726 4 1320 8 1320 5 0 114 -38 243 -84z m1077
-2061 l242 -344 0 -171 c0 -93 -3 -170 -8 -170 -9 0 -453 159 -470 169 -10 6
-13 96 -15 434 -1 235 1 427 4 427 3 0 115 -155 247 -345z m1497 -182 c99 -35
183 -67 187 -71 4 -4 -169 -57 -384 -119 l-390 -112 -193 70 c-106 38 -198 69
-204 69 -6 0 -11 4 -11 9 0 13 772 230 795 224 11 -3 101 -34 200 -70z m-1673
-482 l133 -50 -362 0 -361 -1 -139 49 -138 50 367 0 366 1 134 -49z"/>
</g>
</svg>
